<svg id="Laag_1" data-name="Laag 1" xmlns="http://www.w3.org/2000/svg" viewBox="0 0 738 48">
  <defs>
    <style>
      .cls-1 {
        fill: #1a2a31;
      }
    </style>
  </defs>
  <title>INTERACTIEF STAGEVER</title>
  <g id="Page-1">
    <g id="Home">
      <g id="Intro">
        <path id="INTERACTIEF-STAGEVER" class="cls-1" d="M0.76,47H10V1.3H0.76V47ZM27.44,1.3H16.82V47h8.45V15H25.4L36.66,47h10.5V1.3H38.71V32.6H38.58Zm52.86,0H51.12V8.86h10V47h9.22V8.86h10V1.3Zm29.5,0H84.28V47h26.18V39.45h-17V27.16h15.36V19.61H93.49V8.86h16.32V1.3Zm5.25,0V47h9.22V27.67h4.93q2.88,0,4.1,1.54a7.21,7.21,0,0,1,1.34,4.22l0.26,8.77a24.8,24.8,0,0,0,.26,2.59,4.94,4.94,0,0,0,.9,2.21h10V46.62A3.58,3.58,0,0,1,144.37,44q-0.26-1.92-.38-5.57-0.06-1.86-.13-3.36t-0.19-2.78q-0.38-3.84-2-5.57a8.35,8.35,0,0,0-5.06-2.24V24.34a8.59,8.59,0,0,0,5.76-3.74,13.78,13.78,0,0,0,1.86-7.52q0-6-3.2-8.86t-9-2.91h-17Zm9.22,20V8.09h4.35q6.4,0,6.4,6.34,0,3.71-1.79,5.28a7.54,7.54,0,0,1-5.12,1.57h-3.84Zm45.44,8.51L165.3,9.24h-0.13l-4.42,20.54h9ZM170.93,1.3L183,47h-9.6l-2.11-9.66H159.16L157,47h-9.6l12.1-45.7h11.39Zm34.82,15.42H215a43.69,43.69,0,0,0-.35-5.34,14.08,14.08,0,0,0-1.76-5.31A10.88,10.88,0,0,0,208.6,2a15.93,15.93,0,0,0-7.78-1.6,16.59,16.59,0,0,0-8.26,1.76,11.82,11.82,0,0,0-4.7,4.9,21.2,21.2,0,0,0-2.11,7.52,88.25,88.25,0,0,0-.48,9.57,88,88,0,0,0,.48,9.6,21.15,21.15,0,0,0,2.11,7.49,11.23,11.23,0,0,0,4.7,4.8,17.39,17.39,0,0,0,8.26,1.66,16.72,16.72,0,0,0,7.39-1.41,10.65,10.65,0,0,0,4.42-3.9,15.94,15.94,0,0,0,2.14-5.82,41.26,41.26,0,0,0,.58-7h-9.22a32.11,32.11,0,0,1-.45,6A10.83,10.83,0,0,1,204.47,39a3.85,3.85,0,0,1-1.82,1.66,6.14,6.14,0,0,1-2.27.42,5.35,5.35,0,0,1-2.59-.61,4.54,4.54,0,0,1-1.86-2.37,18.63,18.63,0,0,1-1.09-5,79.89,79.89,0,0,1-.35-8.38q0-4.86.26-8.22a25.66,25.66,0,0,1,.9-5.44,6.15,6.15,0,0,1,1.76-3,4.31,4.31,0,0,1,2.85-.93q3.14,0,4.32,2.27t1.18,7.26h0ZM247.35,1.3H218.16V8.86h10V47h9.22V8.86h10V1.3ZM251.76,47H261V1.3h-9.22V47Zm41.6-45.7H267.83V47H294V39.45H277V27.16H292.4V19.61H277V8.86h16.32V1.3Zm5.25,0V47h9.22V27.16h15.36V19.61H307.83V8.86h16.32V1.3H298.61ZM351,32.73h-9.22v1.86q0,6.34,3.36,9.73t11.17,3.39q7.49,0,11.68-3.3t4.19-10.53a17.74,17.74,0,0,0-.38-3.84,9,9,0,0,0-1.38-3.17,11.7,11.7,0,0,0-2.66-2.69,21.78,21.78,0,0,0-4.29-2.4l-7.1-3.07a8,8,0,0,1-3.84-2.66,6.6,6.6,0,0,1-.9-3.55,8.7,8.7,0,0,1,.22-2,4.08,4.08,0,0,1,.83-1.7,4.31,4.31,0,0,1,1.63-1.18,6.4,6.4,0,0,1,2.56-.45A4.24,4.24,0,0,1,360.76,9a9.17,9.17,0,0,1,1.15,5h8.83V12.7a13.52,13.52,0,0,0-1.06-5.6,10.18,10.18,0,0,0-2.94-3.84,11.87,11.87,0,0,0-4.48-2.18A22.53,22.53,0,0,0,356.6.41q-6.59,0-10.37,3.33t-3.78,10.11a15.9,15.9,0,0,0,.7,5,10.2,10.2,0,0,0,2.21,3.78,14.33,14.33,0,0,0,3.74,2.85,33.17,33.17,0,0,0,5.31,2.24,36.23,36.23,0,0,1,3.87,1.5,9.76,9.76,0,0,1,2.53,1.63,5.24,5.24,0,0,1,1.38,2,7.63,7.63,0,0,1,.42,2.66,5.16,5.16,0,0,1-1.7,4.26,5.89,5.89,0,0,1-3.81,1.38,7.53,7.53,0,0,1-3-.51,4.73,4.73,0,0,1-1.89-1.41,5.09,5.09,0,0,1-1-2.21,15.25,15.25,0,0,1-.26-2.91V32.73ZM403.57,1.3H374.39V8.86h10V47h9.22V8.86h10V1.3Zm23,28.48L422.2,9.24h-0.13l-4.42,20.54h9ZM427.83,1.3L439.92,47h-9.6l-2.11-9.66H416.05L413.94,47h-9.6l12.1-45.7h11.39Zm35.58,13.57h8.83q0-7-3.33-10.72T458,0.41a16.38,16.38,0,0,0-7.36,1.47,11.55,11.55,0,0,0-4.74,4.38,20.21,20.21,0,0,0-2.53,7.26,61.29,61.29,0,0,0-.74,10.11,94,94,0,0,0,.51,10.46,23.22,23.22,0,0,0,2,7.58,10.06,10.06,0,0,0,4.16,4.54,14.12,14.12,0,0,0,6.88,1.47,12.85,12.85,0,0,0,5.6-1.12,9.71,9.71,0,0,0,4-3.81H466V47h6.78V22.36H457.84v6.78h6.08v4.67a8.33,8.33,0,0,1-.58,3.23,7.28,7.28,0,0,1-1.44,2.27,6,6,0,0,1-1.86,1.34,4.47,4.47,0,0,1-1.82.45A4.37,4.37,0,0,1,455,39.86a8.16,8.16,0,0,1-1.92-3.58,28.74,28.74,0,0,1-.93-5.66q-0.26-3.33-.26-7.42,0-8.58,1.47-12.29t4.8-3.71a3.91,3.91,0,0,1,2.4.74,6,6,0,0,1,1.63,1.86,8.54,8.54,0,0,1,.93,2.46,12.51,12.51,0,0,1,.29,2.62h0ZM504.24,1.3H478.71V47h26.18V39.45h-17V27.16h15.36V19.61H487.92V8.86h16.32V1.3Zm12.1,0h-9.86L517,47h11.84l10.5-45.7h-9.54L523,35.1H522.8Zm51.9,0H542.71V47h26.18V39.45h-17V27.16h15.36V19.61H551.92V8.86h16.32V1.3Zm5.25,0V47h9.22V27.67h4.93q2.88,0,4.1,1.54a7.21,7.21,0,0,1,1.34,4.22l0.26,8.77a24.77,24.77,0,0,0,.26,2.59,4.94,4.94,0,0,0,.9,2.21h10V46.62A3.58,3.58,0,0,1,602.8,44q-0.26-1.92-.38-5.57-0.06-1.86-.13-3.36t-0.19-2.78q-0.38-3.84-2-5.57a8.35,8.35,0,0,0-5.06-2.24V24.34a8.59,8.59,0,0,0,5.76-3.74,13.78,13.78,0,0,0,1.86-7.52q0-6-3.2-8.86t-9-2.91h-17Zm9.22,20V8.09h4.35q6.4,0,6.4,6.34,0,3.71-1.79,5.28a7.54,7.54,0,0,1-5.12,1.57h-3.84ZM616.5,32.73h-9.22v1.86q0,6.34,3.36,9.73t11.17,3.39q7.49,0,11.68-3.3t4.19-10.53A17.74,17.74,0,0,0,637.3,30a9,9,0,0,0-1.38-3.17,11.7,11.7,0,0,0-2.66-2.69,21.77,21.77,0,0,0-4.29-2.4l-7.1-3.07A8,8,0,0,1,618,16.06a6.6,6.6,0,0,1-.9-3.55,8.71,8.71,0,0,1,.22-2,4.08,4.08,0,0,1,.83-1.7,4.31,4.31,0,0,1,1.63-1.18,6.4,6.4,0,0,1,2.56-.45A4.24,4.24,0,0,1,626.23,9a9.17,9.17,0,0,1,1.15,5h8.83V12.7a13.52,13.52,0,0,0-1.06-5.6,10.18,10.18,0,0,0-2.94-3.84,11.87,11.87,0,0,0-4.48-2.18,22.54,22.54,0,0,0-5.66-.67q-6.59,0-10.37,3.33t-3.78,10.11a15.9,15.9,0,0,0,.7,5,10.2,10.2,0,0,0,2.21,3.78,14.32,14.32,0,0,0,3.74,2.85,33.17,33.17,0,0,0,5.31,2.24,36.23,36.23,0,0,1,3.87,1.5,9.76,9.76,0,0,1,2.53,1.63,5.24,5.24,0,0,1,1.38,2,7.63,7.63,0,0,1,.42,2.66,5.16,5.16,0,0,1-1.7,4.26,5.89,5.89,0,0,1-3.81,1.38,7.53,7.53,0,0,1-3-.51,4.73,4.73,0,0,1-1.89-1.41,5.09,5.09,0,0,1-1-2.21,15.25,15.25,0,0,1-.26-2.91V32.73ZM642.29,47h25.54V39.45H651.51V1.3h-9.22V47ZM691,29.78L686.58,9.24h-0.13L682,29.78h9ZM692.21,1.3L704.31,47h-9.6l-2.11-9.66H680.44L678.32,47h-9.6l12.1-45.7h11.39ZM727.8,14.87h8.83q0-7-3.33-10.72T722.42,0.41a16.38,16.38,0,0,0-7.36,1.47,11.55,11.55,0,0,0-4.74,4.38,20.21,20.21,0,0,0-2.53,7.26,61.29,61.29,0,0,0-.74,10.11,94,94,0,0,0,.51,10.46,23.22,23.22,0,0,0,2,7.58,10.06,10.06,0,0,0,4.16,4.54,14.12,14.12,0,0,0,6.88,1.47,12.85,12.85,0,0,0,5.6-1.12,9.71,9.71,0,0,0,4-3.81h0.13V47h6.78V22.36H722.23v6.78h6.08v4.67a8.33,8.33,0,0,1-.58,3.23,7.28,7.28,0,0,1-1.44,2.27,6,6,0,0,1-1.86,1.34,4.47,4.47,0,0,1-1.82.45,4.37,4.37,0,0,1-3.23-1.25,8.16,8.16,0,0,1-1.92-3.58,28.74,28.74,0,0,1-.93-5.66q-0.26-3.33-.26-7.42,0-8.58,1.47-12.29t4.8-3.71a3.91,3.91,0,0,1,2.4.74,6,6,0,0,1,1.63,1.86,8.54,8.54,0,0,1,.93,2.46,12.51,12.51,0,0,1,.29,2.62h0Z"/>
      </g>
    </g>
  </g>
</svg>
